<svg xmlns="http://www.w3.org/2000/svg" width="640" height="464" viewBox="0 0 640 464">
    <g id="prefix__chore_door" data-name="chore door" transform="translate(-1280 -2509)">
        <path id="prefix__Rectangle_28" d="M0 0H640V464H0z" data-name="Rectangle 28" transform="translate(1280 2509)" style="fill:#081826"/>
        <g id="prefix__Page-1" transform="translate(1426.411 2692.577)">
            <g id="prefix___1-panel_example_1-copy-2" data-name="1-panel_example_1-copy-2" transform="translate(-.41 .423)">
                <g id="prefix__chore_door-2" data-name="chore door">
                    <path id="prefix__Chore-Door" d="M57.926 40.2a10.669 10.669 0 0 1-4.348 6.058 13.326 13.326 0 0 1-7.472 2.048 14.174 14.174 0 0 1-7.135-1.731 11.527 11.527 0 0 1-4.665-4.961 16.859 16.859 0 0 1-1.625-7.662 16.859 16.859 0 0 1 1.625-7.662 11.563 11.563 0 0 1 4.644-4.961 13.969 13.969 0 0 1 7.071-1.729 14.05 14.05 0 0 1 7.367 1.815 9.363 9.363 0 0 1 4.158 5.4l-5.277 2.238a6.478 6.478 0 0 0-2.111-3.588 6.241 6.241 0 0 0-3.884-1.1 6.733 6.733 0 0 0-5.552 2.491q-2.005 2.491-2.005 7.093t1.942 7.093a6.556 6.556 0 0 0 5.488 2.491 6.04 6.04 0 0 0 6.417-4.933zM86.95 20.022v27.864h-5.826V36.149H68.839v11.737h-5.826V20.022h5.826v11.441h12.285V20.022zm19.4-.422a14.057 14.057 0 0 1 7.114 1.731 11.564 11.564 0 0 1 4.644 4.961 16.859 16.859 0 0 1 1.625 7.662 16.859 16.859 0 0 1-1.625 7.662 11.564 11.564 0 0 1-4.644 4.961 15.526 15.526 0 0 1-14.248 0 11.527 11.527 0 0 1-4.665-4.961 16.859 16.859 0 0 1-1.625-7.662 16.859 16.859 0 0 1 1.625-7.662 11.527 11.527 0 0 1 4.665-4.961 14.174 14.174 0 0 1 7.133-1.731zm0 4.771a6.52 6.52 0 0 0-5.467 2.47q-1.921 2.47-1.921 7.114t1.921 7.114a7.239 7.239 0 0 0 10.892 0q1.921-2.47 1.921-7.114t-1.921-7.114a6.474 6.474 0 0 0-5.426-2.47zM136.682 37.2h-5.235v10.686h-5.742V20.022h12.285q4.771 0 7.451 2.259a7.851 7.851 0 0 1 2.681 6.354 8.3 8.3 0 0 1-1.478 5.024 8.132 8.132 0 0 1-4.222 2.913l7.346 11.314h-6.544zm-5.235-4.433h5.784a5.813 5.813 0 0 0 3.736-.992 3.739 3.739 0 0 0 1.2-3.061 3.739 3.739 0 0 0-1.2-3.061 5.813 5.813 0 0 0-3.736-.992h-5.784zM176.008 43.2v4.686h-21.489V20.022h20.9v4.686h-15.074v6.924h11.863v4.475h-11.863V43.2zm29.13-23.177q6.544 0 10.132 3.631t3.588 10.3q0 6.67-3.588 10.3t-10.132 3.631h-10.766V20.022zm-.3 23.219a7.363 7.363 0 0 0 5.974-2.385q2.005-2.385 2.005-6.9t-2.005-6.9a7.363 7.363 0 0 0-5.974-2.385H200.2v18.57zM236.864 19.6a14.057 14.057 0 0 1 7.114 1.731 11.563 11.563 0 0 1 4.644 4.961 16.859 16.859 0 0 1 1.625 7.662 16.859 16.859 0 0 1-1.625 7.662 11.563 11.563 0 0 1-4.644 4.961 15.526 15.526 0 0 1-14.248 0 11.527 11.527 0 0 1-4.665-4.961 16.859 16.859 0 0 1-1.625-7.662 16.859 16.859 0 0 1 1.625-7.662 11.527 11.527 0 0 1 4.665-4.961 14.174 14.174 0 0 1 7.134-1.731zm0 4.771a6.52 6.52 0 0 0-5.467 2.47q-1.921 2.47-1.921 7.114t1.921 7.114a7.239 7.239 0 0 0 10.892 0q1.921-2.47 1.921-7.114t-1.921-7.114a6.474 6.474 0 0 0-5.425-2.47zm31.388-4.771a14.057 14.057 0 0 1 7.114 1.731 11.564 11.564 0 0 1 4.644 4.961 16.859 16.859 0 0 1 1.625 7.662 16.859 16.859 0 0 1-1.625 7.662 11.564 11.564 0 0 1-4.644 4.961 15.526 15.526 0 0 1-14.248 0 11.528 11.528 0 0 1-4.665-4.961 16.859 16.859 0 0 1-1.625-7.662 16.859 16.859 0 0 1 1.625-7.662 11.528 11.528 0 0 1 4.665-4.961 14.174 14.174 0 0 1 7.134-1.731zm0 4.771a6.52 6.52 0 0 0-5.467 2.47q-1.921 2.47-1.921 7.114t1.921 7.114a7.239 7.239 0 0 0 10.892 0q1.921-2.47 1.921-7.114t-1.921-7.114a6.474 6.474 0 0 0-5.425-2.47zM298.585 37.2h-5.235v10.686h-5.742V20.022h12.285q4.771 0 7.451 2.259a7.851 7.851 0 0 1 2.681 6.354 8.3 8.3 0 0 1-1.478 5.024 8.132 8.132 0 0 1-4.222 2.913l7.346 11.314h-6.544zm-5.235-4.433h5.784a5.813 5.813 0 0 0 3.736-.992 3.738 3.738 0 0 0 1.2-3.061 3.738 3.738 0 0 0-1.2-3.061 5.813 5.813 0 0 0-3.736-.992h-5.784z" transform="translate(36.177 21.098)" style="stroke:#707070;fill:#30f2f2;fill-rule:evenodd"/>
                    <path id="prefix__Fill-1" d="M9.43 57.7l2.06 2.084 21.365 21.289 2.06 2.084-4.967 7.377-.479-.45-3.161-3.155a8.993 8.993 0 0 1 2.653-4.535.793.793 0 0 0-.649-1.379.735.735 0 0 0-.423.2 10.147 10.147 0 0 0-2.851 4.45L21.2 81.8a5.615 5.615 0 0 1 1.863-2.732.842.842 0 0 0 .282-.93.8.8 0 0 0-.847-.507.9.9 0 0 0-.423.169 6.857 6.857 0 0 0-2.116 2.787l-3.386-3.435 4.121-4.111a.861.861 0 0 0 .17-.985.837.837 0 0 0-.9-.4.8.8 0 0 0-.4.226l-4.149 4.14-3.443-3.406a6.931 6.931 0 0 0 2.823-2.111.847.847 0 0 0-.706-1.3.876.876 0 0 0-.565.31 5.824 5.824 0 0 1-2.765 1.86l-3.839-3.8a10.142 10.142 0 0 0 4.43-2.873.82.82 0 0 0-.565-1.323.772.772 0 0 0-.593.254 8.878 8.878 0 0 1-4.544 2.675l-3.19-3.182-.451-.45zm4.064-4.534a.508.508 0 0 1 .451.112l.141.112.028.028.96.958L38.246 77.5l.988.985c.028 0 .028.028.056.057l.085.084v.028a.524.524 0 0 1 .084.564L37 82.9c-.028 0 0 0 0 .028a.105.105 0 0 1-.085-.028l-.337-.366-.085-.084-2.512-2.507-21.36-21.286-2.371-2.365a.1.1 0 0 1-.028-.056.8.8 0 0 0-.283-.254l-.254-.282-.056-.056c0 .028-.028.028.028-.028l3.725-2.422c.027-.028.056-.028.112-.028zm25.371-3.66a.438.438 0 0 1 .311.056.748.748 0 0 0 .17.14l.818.845 1.947 1.915.677.676a.723.723 0 0 0 .339.422v.226l-.927 1.408-4.77-4.73zm-10.61-4.2h.593a3.505 3.505 0 0 1 2.116.958L34.8 50.1l.79.76.028.028 3.082 3.067 3.048 3.069c.028.028.085.056.112.084l.706.7 3.838 3.83a3.726 3.726 0 0 1 .423 4.393l-7.14 10.616-.311-.282h-.028L16.2 53.279l-.282-.31 10.672-7.125a3.754 3.754 0 0 1 1.665-.535zM79.662 1.577a.575.575 0 0 1 .423.169l1.863 1.831a.611.611 0 0 1 0 .845L43.579 51.73l-.339-.366-1.976-1.944-.338-.366 38.311-47.31a.688.688 0 0 1 .424-.168zm0-1.577a2.143 2.143 0 0 0-1.525.648L39.685 48.041a1.723 1.723 0 0 0-.509-.14 1.842 1.842 0 0 0-1.186.31l-1.693 1.1-.338-.366-3.839-3.8a5.294 5.294 0 0 0-3.131-1.445 5.12 5.12 0 0 0-3.3.788l-10.981 7.355a1.928 1.928 0 0 0-.875-.31 2.1 2.1 0 0 0-1.355.31l-3.7 2.479a1.628 1.628 0 0 0-.733 1.211 1.683 1.683 0 0 0 .282 1.014L.314 61.924A.851.851 0 0 0 .2 63.136l1.16 1.126L4.8 67.7l.056.056 23.513 23.427 1.131 1.154a.854.854 0 0 0 1.214-.112l5.386-7.969a1.618 1.618 0 0 0 1.015.253 1.653 1.653 0 0 0 1.214-.7l2.455-3.717a2.05 2.05 0 0 0 0-2.225l7.366-10.954a5.174 5.174 0 0 0-.621-6.392l-3.839-3.83-.366-.337 1.128-1.69a1.709 1.709 0 0 0 .141-1.718L83.05 5.548a2.2 2.2 0 0 0 0-3.1L81.216.62A2.182 2.182 0 0 0 79.662 0z" transform="rotate(-2 83.672 1.46)" style="stroke:#010165;stroke-width:.5px;fill:#30f2f2;fill-rule:evenodd"/>
                </g>
            </g>
        </g>
    </g>
</svg>
