<svg xmlns="http://www.w3.org/2000/svg" width="41.025" height="40" viewBox="0 0 41.025 40">
    <path d="M13.722 32.208c0 .165-.19.3-.43.3-.273.025-.463-.108-.463-.3 0-.165.19-.3.43-.3.248-.023.463.11.463.3zm-2.572-.372c-.058.165.108.356.356.405a.388.388 0 0 0 .513-.165c.05-.165-.108-.356-.356-.43a.425.425 0 0 0-.513.19zm3.656-.141c-.24.058-.405.215-.38.405.025.165.24.273.488.215s.405-.215.38-.38-.249-.265-.489-.235zM20.248 0A19.833 19.833 0 0 0 0 20.182a20.737 20.737 0 0 0 14.02 19.784c1.059.19 1.431-.463 1.431-1 0-.513-.025-3.342-.025-5.079 0 0-5.79 1.241-7.006-2.465 0 0-.943-2.407-2.3-3.027 0 0-1.894-1.3.132-1.274a4.366 4.366 0 0 1 3.193 2.134c1.811 3.193 4.847 2.275 6.03 1.729A4.6 4.6 0 0 1 16.8 28.2c-4.624-.513-9.289-1.183-9.289-9.14a6.269 6.269 0 0 1 1.952-4.872 7.815 7.815 0 0 1 .215-5.616c1.729-.538 5.707 2.233 5.707 2.233a19.54 19.54 0 0 1 10.389 0s3.978-2.779 5.707-2.233a7.811 7.811 0 0 1 .215 5.616 6.429 6.429 0 0 1 2.134 4.872c0 7.982-4.872 8.619-9.5 9.14a4.891 4.891 0 0 1 1.406 3.838c0 2.787-.025 6.236-.025 6.915 0 .538.38 1.191 1.431 1a20.546 20.546 0 0 0 13.883-19.771C41.025 8.71 31.72 0 20.248 0zM8.04 28.527c-.108.083-.083.273.058.43.132.132.323.19.43.083.108-.083.083-.273-.058-.43-.133-.132-.323-.19-.43-.083zm-.893-.67c-.058.108.025.24.19.323a.246.246 0 0 0 .356-.058c.058-.108-.025-.24-.19-.323-.166-.049-.303-.024-.357.058zM9.826 30.8c-.132.108-.083.356.108.513.19.19.43.215.538.083.108-.108.058-.356-.108-.513-.182-.189-.43-.214-.538-.083zm-.943-1.216c-.132.083-.132.3 0 .488s.356.273.463.19a.377.377 0 0 0 0-.513c-.116-.19-.331-.273-.463-.165z"/>
</svg>
