<svg xmlns="http://www.w3.org/2000/svg" width="40" height="40" viewBox="0 0 40 40">
    <path id="prefix__mail" d="M9895 40a19.994 19.994 0 0 1-14.142-34.142 20 20 0 1 1 21.927 32.57A19.874 19.874 0 0 1 9895 40zm-10.75-22.767a.246.246 0 0 0-.248.25V26a2 2 0 0 0 2 2h17.331a2 2 0 0 0 2-2v-8.522a.251.251 0 0 0-.252-.248.241.241 0 0 0-.151.054c-.968.752-2.276 1.729-6.417 4.738-.117.085-.249.186-.389.294l-.051.04c-.851.657-2.137 1.65-3.386 1.65h-.032a6.225 6.225 0 0 1-3.387-1.647c-.147-.114-.3-.234-.442-.336-4.341-3.154-5.53-4.04-6.423-4.735a.251.251 0 0 0-.154-.055zm10.419 5.433h.021a5.659 5.659 0 0 0 2.616-1.406l.021-.015c.146-.113.282-.219.4-.3 5.285-3.837 5.913-4.33 7.052-5.226l.175-.137a1 1 0 0 0 .383-.789V14a2 2 0 0 0-2-2H9886a2 2 0 0 0-2 2v.791a1 1 0 0 0 .383.789l.269.21c1.1.862 1.829 1.431 6.955 5.152.12.087.264.2.415.314l.01.007a5.662 5.662 0 0 0 2.615 1.4z" transform="translate(-9875)" style="fill:#111"/>
</svg>
